<svg width="336" height="376" viewBox="0 0 336 376" fill="none" xmlns="http://www.w3.org/2000/svg">
<rect x="266.516" y="171.524" width="24.7479" height="157.16" rx="12.3739" fill="#172863"/>
<rect x="255.093" y="130.121" width="73.2918" height="69.2854" rx="24" fill="#62C0F4"/>
<path d="M255.093 303.642C255.093 293.206 263.554 284.746 273.99 284.746H309.489C319.925 284.746 328.385 293.206 328.385 303.642V317.386C328.385 337.625 311.978 354.031 291.739 354.031V354.031C271.5 354.031 255.093 337.625 255.093 317.386V303.642Z" fill="#62C0F4"/>
<rect x="230.346" y="130.121" width="73.2918" height="69.2854" rx="24" fill="#1E90D0"/>
<path d="M230.346 301.243C230.346 292.132 237.731 284.746 246.842 284.746H287.141C296.252 284.746 303.637 292.132 303.637 301.243V317.386C303.637 337.625 287.23 354.031 266.992 354.031V354.031C246.753 354.031 230.346 337.625 230.346 317.386V301.243Z" fill="#1E90D0"/>
<circle cx="160.632" cy="275.243" r="15" fill="#E83B5A"/>
<circle cx="155.873" cy="270.173" r="15" fill="#EBD044"/>
<circle cx="161.584" cy="258.306" r="26" fill="#EBD044"/>
<circle cx="179.15" cy="316.863" r="26" fill="#EBD044"/>
<circle cx="171.102" cy="263.413" r="15" fill="#EBD044"/>
<circle cx="185.477" cy="265.725" r="12.2414" fill="#E83B5A"/>
<circle r="15" transform="matrix(-1 0 0 1 140.15 270.173)" fill="#EBD044"/>
<circle r="12.1978" transform="matrix(-1 0 0 1 140.097 255.542)" fill="#E83B5A"/>
<rect x="108.51" y="242.499" width="111.365" height="28.7281" rx="14.364" fill="#172863"/>
<path d="M11.4221 138.975C11.4221 101.42 41.8667 70.9753 79.4221 70.9753H268C305.555 70.9753 336 101.42 336 138.975V220.863C336 240.745 319.882 256.863 300 256.863H47.4221C27.5398 256.863 11.4221 240.745 11.4221 220.863V138.975Z" fill="#62C0F4"/>
<path d="M11.4221 138.571C11.4221 101.239 41.6856 70.9753 79.0176 70.9753H268.405C305.736 70.9753 336 101.239 336 138.571V138.571H11.4221V138.571Z" fill="#C0EAF3"/>
<path d="M11.4221 131.893C11.4221 98.2491 38.6959 70.9753 72.3399 70.9753V70.9753C105.984 70.9753 133.258 98.2491 133.258 131.893V220.863C133.258 240.745 117.14 256.863 97.2578 256.863H47.4221C27.5398 256.863 11.4221 240.745 11.4221 220.863V131.893Z" fill="#1E90D0"/>
<path d="M167.524 31.9043C167.524 28.7502 170.081 26.1933 173.235 26.1933V26.1933C176.389 26.1933 178.946 28.7502 178.946 31.9043V77.9596C178.946 80.1687 177.155 81.9596 174.946 81.9596H171.524C169.315 81.9596 167.524 80.1687 167.524 77.9596V31.9043Z" fill="#172863"/>
<ellipse cx="173.235" cy="16.8989" rx="19.0368" ry="16.8989" fill="#E83B5A"/>
<ellipse cx="162.765" cy="10.9843" rx="3.80737" ry="3.37978" fill="#EBD044"/>
<path d="M151.297 131.757C151.297 122.921 158.461 115.757 167.297 115.757H295.297C304.134 115.757 311.297 122.921 311.297 131.757V147.074C311.297 155.911 304.134 163.074 295.297 163.074H167.297C158.461 163.074 151.297 155.911 151.297 147.074V131.757Z" fill="#172863"/>
<rect x="175.297" y="127.757" width="21" height="32" rx="8" fill="#C0EAF3"/>
<rect x="266.297" y="127.757" width="21" height="32" rx="8" fill="#C0EAF3"/>
<rect x="36.17" y="171.524" width="24.7479" height="157.16" rx="12.3739" fill="#172863"/>
<rect x="24.7479" y="128.431" width="73.2918" height="69.2854" rx="24" fill="#62C0F4"/>
<path d="M24.7479 323.921C24.7479 313.485 33.2079 305.025 43.6439 305.025H79.1436C89.5796 305.025 98.0397 313.485 98.0397 323.921V337.664C98.0397 357.903 81.6327 374.31 61.3938 374.31V374.31C41.1548 374.31 24.7479 357.903 24.7479 337.664V323.921Z" fill="#62C0F4"/>
<rect y="128.431" width="73.2918" height="69.2854" rx="24" fill="#1E90D0"/>
<path d="M0 321.521C0 312.41 7.38575 305.025 16.4965 305.025H56.7953C65.906 305.025 73.2918 312.41 73.2918 321.521V337.664C73.2918 357.903 56.8849 374.31 36.6459 374.31V374.31C16.4069 374.31 0 357.903 0 337.664V321.521Z" fill="#1E90D0"/>
<g clip-path="url(#clip0_63_421)">
<path d="M155.15 190.112C155.15 186.379 158.177 183.353 161.91 183.353H300.685C304.418 183.353 307.445 186.379 307.445 190.112V190.112C307.445 193.846 304.418 196.872 300.685 196.872H161.91C158.177 196.872 155.15 193.846 155.15 190.112V190.112Z" fill="#172863"/>
<path d="M307.15 183.353H322.15V197.353H307.15V183.353Z" fill="#E83B5A"/>
</g>
<defs>
<clipPath id="clip0_63_421">
<path d="M155.15 190.112C155.15 186.379 158.177 183.353 161.91 183.353H300.685C304.418 183.353 307.445 186.379 307.445 190.112V190.112C307.445 193.846 304.418 196.872 300.685 196.872H161.91C158.177 196.872 155.15 193.846 155.15 190.112V190.112Z" fill="white"/>
</clipPath>
</defs>
</svg>
